<svg width="67" height="77" viewBox="0 0 67 77" fill="none" xmlns="http://www.w3.org/2000/svg">
<g clip-path="url(#clip0_1_112)">
<path d="M33.5 38.2857C38.577 38.2857 43.4461 36.2689 47.036 32.6789C50.626 29.0889 52.6429 24.2199 52.6429 19.1429C52.6429 14.0659 50.626 9.1968 47.036 5.60681C43.4461 2.01683 38.577 0 33.5 0C28.423 0 23.5539 2.01683 19.964 5.60681C16.374 9.1968 14.3571 14.0659 14.3571 19.1429C14.3571 24.2199 16.374 29.0889 19.964 32.6789C23.5539 36.2689 28.423 38.2857 33.5 38.2857ZM26.6654 45.4643C11.9344 45.4643 0 57.3987 0 72.1297C0 74.5824 1.98906 76.5714 4.44174 76.5714H62.5583C65.0109 76.5714 67 74.5824 67 72.1297C67 57.3987 55.0656 45.4643 40.3346 45.4643H26.6654Z" fill="#00C0CC"/>
</g>
<defs>
<clipPath id="clip0_1_112">
<rect width="67" height="76.5714" fill="white"/>
</clipPath>
</defs>
</svg>
