<svg width="77" height="77" viewBox="0 0 77 77" fill="none" xmlns="http://www.w3.org/2000/svg">
<g clip-path="url(#clip0_378_9)">
<path d="M54.5417 0H22.4583C13.613 0 6.41666 7.19629 6.41666 16.0417V60.9583C6.41666 69.8037 13.613 77 22.4583 77H54.5417C63.3871 77 70.5834 69.8037 70.5834 60.9583V16.0417C70.5834 7.19629 63.3871 0 54.5417 0ZM32.0833 60.9583C32.0833 62.7293 30.646 64.1667 28.875 64.1667H22.4583C20.6873 64.1667 19.25 62.7293 19.25 60.9583V54.5417C19.25 52.7707 20.6873 51.3333 22.4583 51.3333H28.875C30.646 51.3333 32.0833 52.7707 32.0833 54.5417V60.9583ZM32.0833 41.7083C32.0833 43.4793 30.646 44.9167 28.875 44.9167H22.4583C20.6873 44.9167 19.25 43.4793 19.25 41.7083V35.2917C19.25 33.5207 20.6873 32.0833 22.4583 32.0833H28.875C30.646 32.0833 32.0833 33.5207 32.0833 35.2917V41.7083ZM32.0833 22.4583C32.0833 24.2293 30.646 25.6667 28.875 25.6667H22.4583C20.6873 25.6667 19.25 24.2293 19.25 22.4583V16.0417C19.25 14.2707 20.6873 12.8333 22.4583 12.8333H28.875C30.646 12.8333 32.0833 14.2707 32.0833 16.0417V22.4583ZM54.5417 60.9583H41.7083C37.5118 60.9391 37.515 54.5609 41.7083 54.5417H54.5417C58.7382 54.5609 58.735 60.9391 54.5417 60.9583ZM54.5417 41.7083H41.7083C37.5118 41.6891 37.515 35.3109 41.7083 35.2917H54.5417C58.7382 35.3109 58.735 41.6891 54.5417 41.7083ZM54.5417 22.4583H41.7083C37.5118 22.4391 37.515 16.0609 41.7083 16.0417H54.5417C58.7382 16.0609 58.735 22.4391 54.5417 22.4583Z" fill="#00C0CC"/>
</g>
<defs>
<clipPath id="clip0_378_9">
<rect width="77" height="77" fill="white"/>
</clipPath>
</defs>
</svg>
