<svg width="72" height="72" viewBox="0 0 72 72" fill="none" xmlns="http://www.w3.org/2000/svg">
<g clip-path="url(#clip0_1_110)">
<path d="M72 11.25C72 13.7812 69.9891 16.1156 66.6 18C62.5078 20.2641 56.4047 21.8672 49.4016 22.3453C48.8812 22.0922 48.3609 21.8531 47.8125 21.6422C42.2719 19.3219 34.9031 18 27 18C25.8328 18 24.6938 18.0281 23.5547 18.0844L23.4 18C20.0109 16.1156 18 13.7812 18 11.25C18 5.03437 30.0938 0 45 0C59.9062 0 72 5.03437 72 11.25ZM22.5984 22.6547C24.0328 22.5563 25.5094 22.5 27 22.5C35.7469 22.5 43.5094 24.2297 48.4453 26.9156C51.9328 28.8141 54 31.1766 54 33.75C54 34.3125 53.9016 34.8609 53.7047 35.3953C53.0578 37.2516 51.3141 38.9531 48.7828 40.3875C48.7687 40.4016 48.7406 40.4016 48.7266 40.4156C48.6844 40.4437 48.6422 40.4578 48.6 40.4859C43.6781 43.2141 35.8312 44.9859 27 44.9859C18.6187 44.9859 11.1234 43.3969 6.15937 40.8937C5.89219 40.7672 5.63906 40.6266 5.38594 40.4859C2.01094 38.6156 0 36.2812 0 33.75C0 28.8563 7.50938 24.6797 18 23.1469C19.4766 22.9359 21.0094 22.7672 22.5984 22.6547ZM58.5 33.75C58.5 30.6703 57.0094 28.1391 55.1109 26.2406C59.0906 25.6219 62.7328 24.6375 65.8266 23.3578C68.1188 22.4016 70.2562 21.2203 72 19.7719V24.75C72 27.4641 69.6797 29.9672 65.8406 31.9078C63.7875 32.9484 61.2844 33.8344 58.4719 34.5094C58.4859 34.2562 58.5 34.0172 58.5 33.7641V33.75ZM54 47.25C54 49.7812 51.9891 52.1156 48.6 54C48.3469 54.1406 48.0938 54.2672 47.8266 54.4078C42.8766 56.9109 35.3812 58.5 27 58.5C18.1688 58.5 10.3219 56.7281 5.4 54C2.01094 52.1156 0 49.7812 0 47.25V42.2719C1.75781 43.7203 3.88125 44.9016 6.17344 45.8578C11.7281 48.1781 19.0969 49.5 27 49.5C34.9031 49.5 42.2719 48.1781 47.8266 45.8578C48.9234 45.4078 49.9781 44.8875 50.9766 44.325C51.8344 43.8469 52.6359 43.3125 53.3953 42.75C53.6063 42.5953 53.8031 42.4266 54 42.2719V42.75V43.5516V47.25ZM58.5 47.25V42.75V39.1078C61.1719 38.5172 63.6328 37.7719 65.8266 36.8578C68.1188 35.9016 70.2562 34.7203 72 33.2719V38.25C72 39.7266 71.2969 41.2031 69.9047 42.5953C67.6125 44.8875 63.5766 46.7719 58.4719 47.9953C58.4859 47.7562 58.5 47.5031 58.5 47.25ZM27 63C34.9031 63 42.2719 61.6781 47.8266 59.3578C50.1188 58.4016 52.2562 57.2203 54 55.7719V60.75C54 66.9656 41.9062 72 27 72C12.0938 72 0 66.9656 0 60.75V55.7719C1.75781 57.2203 3.88125 58.4016 6.17344 59.3578C11.7281 61.6781 19.0969 63 27 63Z" fill="#00C0CC"/>
</g>
<defs>
<clipPath id="clip0_1_110">
<rect width="72" height="72" fill="white"/>
</clipPath>
</defs>
</svg>
