<svg width="74" height="85" viewBox="0 0 74 85" fill="none" xmlns="http://www.w3.org/2000/svg">
<path d="M26.4286 13.2143C26.4286 8.83704 29.9799 5.28571 34.3571 5.28571H39.6429C44.0201 5.28571 47.5714 8.83704 47.5714 13.2143V71.3571C47.5714 75.7344 44.0201 79.2857 39.6429 79.2857H34.3571C29.9799 79.2857 26.4286 75.7344 26.4286 71.3571V13.2143ZM0 44.9286C0 40.5513 3.55134 37 7.92857 37H13.2143C17.5915 37 21.1429 40.5513 21.1429 44.9286V71.3571C21.1429 75.7344 17.5915 79.2857 13.2143 79.2857H7.92857C3.55134 79.2857 0 75.7344 0 71.3571V44.9286ZM60.7857 15.8571H66.0714C70.4487 15.8571 74 19.4085 74 23.7857V71.3571C74 75.7344 70.4487 79.2857 66.0714 79.2857H60.7857C56.4085 79.2857 52.8571 75.7344 52.8571 71.3571V23.7857C52.8571 19.4085 56.4085 15.8571 60.7857 15.8571Z" fill="#00C0CC"/>
</svg>
