<svg width="26" height="30" viewBox="0 0 26 30" fill="none" xmlns="http://www.w3.org/2000/svg">
<g clip-path="url(#clip0_767_3)">
<path d="M8.35714 8.35715V11.1429H17.6429V8.35715C17.6429 5.79197 15.5652 3.71429 13 3.71429C10.4348 3.71429 8.35714 5.79197 8.35714 8.35715ZM4.64286 11.1429V8.35715C4.64286 3.7433 8.38616 0 13 0C17.6138 0 21.3571 3.7433 21.3571 8.35715V11.1429H22.2857C24.3344 11.1429 26 12.8085 26 14.8571V26C26 28.0487 24.3344 29.7143 22.2857 29.7143H3.71429C1.66562 29.7143 0 28.0487 0 26V14.8571C0 12.8085 1.66562 11.1429 3.71429 11.1429H4.64286Z" fill="#565656"/>
</g>
<defs>
<clipPath id="clip0_767_3">
<rect width="26" height="29.7143" fill="white"/>
</clipPath>
</defs>
</svg>
