<svg width="32" height="29" viewBox="0 0 32 29" fill="none" xmlns="http://www.w3.org/2000/svg">
<g clip-path="url(#clip0_767_5)">
<path d="M19.5556 8C19.5556 5.54445 21.5444 3.55556 24 3.55556C26.4556 3.55556 28.4444 5.54445 28.4444 8V10.6667C28.4444 11.65 29.2389 12.4444 30.2222 12.4444C31.2056 12.4444 32 11.65 32 10.6667V8C32 3.58333 28.4167 0 24 0C19.5833 0 16 3.58333 16 8V10.6667H3.55556C1.59444 10.6667 0 12.2611 0 14.2222V24.8889C0 26.85 1.59444 28.4445 3.55556 28.4445H21.3333C23.2944 28.4445 24.8889 26.85 24.8889 24.8889V14.2222C24.8889 12.2611 23.2944 10.6667 21.3333 10.6667H19.5556V8Z" fill="#565656"/>
</g>
<defs>
<clipPath id="clip0_767_5">
<rect width="32" height="28.4445" fill="white"/>
</clipPath>
</defs>
</svg>
